<svg xmlns="http://www.w3.org/2000/svg" width="40" height="40.002" viewBox="0 0 40 40.002">
  <g id="user_2_" data-name="user (2)" transform="translate(0 0)">
    <path id="Path_26" data-name="Path 26" d="M16.363,33.323l-5.968,3.255a5.363,5.363,0,0,0-.958.682,19.988,19.988,0,0,0,25.682.066,5.294,5.294,0,0,0-1.052-.7l-6.39-3.195a2.437,2.437,0,0,1-1.347-2.18V28.74a9.652,9.652,0,0,0,.6-.777,14.7,14.7,0,0,0,1.986-4,2.007,2.007,0,0,0,1.423-1.91V19.374a2,2,0,0,0-.669-1.483V14.022S30.47,8,22.316,8s-7.359,6.021-7.359,6.021V17.89a2,2,0,0,0-.669,1.483V22.05a2.006,2.006,0,0,0,.925,1.684,13.281,13.281,0,0,0,2.42,5.006v2.445A2.44,2.44,0,0,1,16.363,33.323Z" transform="translate(-2.314 -1.962)" fill="#e7eced"/>
    <g id="Group_56" data-name="Group 56" transform="translate(0 0)">
      <path id="Path_27" data-name="Path 27" d="M20.343,0A19.988,19.988,0,0,0,7.131,35.292a5.314,5.314,0,0,1,.949-.675l5.968-3.255a2.438,2.438,0,0,0,1.27-2.14V26.777a13.268,13.268,0,0,1-2.42-5.006,2.007,2.007,0,0,1-.925-1.684V17.41a2,2,0,0,1,.669-1.483V12.059S11.847,6.038,20,6.038s7.359,6.021,7.359,6.021v3.869a2,2,0,0,1,.669,1.483v2.676A2.007,2.007,0,0,1,26.6,22a14.7,14.7,0,0,1-1.986,4,9.652,9.652,0,0,1-.6.777v2.507a2.436,2.436,0,0,0,1.347,2.18l6.39,3.195a5.321,5.321,0,0,1,1.049.7A20,20,0,0,0,20.343,0Z" transform="translate(0 0)" fill="#851851"/>
    </g>
  </g>
</svg>
