<svg xmlns="http://www.w3.org/2000/svg" width="35.661" height="49.241" viewBox="0 0 35.661 49.241">
  <g id="docs" transform="translate(-70.6)">
    <path id="Path_143" data-name="Path 143" d="M106.261,13.484V46.067a3.177,3.177,0,0,1-3.174,3.174H73.774A3.177,3.177,0,0,1,70.6,46.067V3.174A3.177,3.177,0,0,1,73.774,0h19Z" transform="translate(0)" fill="#518ff5"/>
    <g id="Group_80" data-name="Group 80" transform="translate(79.313 24.726)">
      <path id="Path_144" data-name="Path 144" d="M161.2,257.1h18.235v2.029H161.2Z" transform="translate(-161.2 -257.1)" fill="#fff"/>
      <path id="Path_145" data-name="Path 145" d="M161.2,304.1h18.235v2.029H161.2Z" transform="translate(-161.2 -299.58)" fill="#fff"/>
      <path id="Path_146" data-name="Path 146" d="M161.2,351.2h18.235v2.029H161.2Z" transform="translate(-161.2 -342.15)" fill="#fff"/>
      <path id="Path_147" data-name="Path 147" d="M161.2,398.2h12.974v2.029H161.2Z" transform="translate(-161.2 -384.63)" fill="#fff"/>
    </g>
    <path id="Path_148" data-name="Path 148" d="M320.3,104.26l11.647,9.435v-8.867l-6.6-3.828Z" transform="translate(-225.685 -91.286)" opacity="0.19"/>
    <path id="Path_149" data-name="Path 149" d="M314.684,13.484h-10.31A3.177,3.177,0,0,1,301.2,10.31V0Z" transform="translate(-208.422)" fill="#a6c5fa"/>
  </g>
</svg>
