<svg id="Folder" xmlns="http://www.w3.org/2000/svg" width="32.728" height="24" viewBox="0 0 32.728 24">
  <path id="Path_141" data-name="Path 141" d="M27.182,8H14.6L12.444,4.507A1.112,1.112,0,0,0,11.495,4h-9.4A1.048,1.048,0,0,0,1,5V27a1.028,1.028,0,0,0,.892.983,1.268,1.268,0,0,0,.2.017,1.093,1.093,0,0,0,1.018-.641L8.295,15H27.182a1.048,1.048,0,0,0,1.091-1V9A1.048,1.048,0,0,0,27.182,8Z" transform="translate(-1 -4)" fill="#e8a113"/>
  <path id="Path_142" data-name="Path 142" d="M33.536,13.434a1.122,1.122,0,0,0-.9-.434H7.545a1.094,1.094,0,0,0-1.018.641l-5.455,13a.93.93,0,0,0,.119.926,1.122,1.122,0,0,0,.9.434H27.182a1.094,1.094,0,0,0,1.018-.641l5.455-13a.932.932,0,0,0-.119-.926Z" transform="translate(-1 -4)" fill="#ffc431"/>
</svg>
